<?xml version="1.0" standalone="no"?>
<!DOCTYPE svg PUBLIC "-//W3C//DTD SVG 20010904//EN"
 "http://www.w3.org/TR/2001/REC-SVG-20010904/DTD/svg10.dtd">
<svg version="1.0" xmlns="http://www.w3.org/2000/svg"
 width="714.000000pt" height="720.000000pt" viewBox="0 0 714.000000 720.000000"
 preserveAspectRatio="xMidYMid meet">

<g transform="translate(0.000000,720.000000) scale(0.100000,-0.100000)"
fill="#000000" stroke="none">
<path d="M4988 6480 c-26 -5 -70 -16 -97 -25 -108 -36 -160 -82 -566 -505 -61
-63 -185 -191 -275 -285 -91 -93 -289 -298 -440 -455 -151 -157 -408 -422
-571 -590 -162 -168 -398 -412 -523 -542 -125 -130 -230 -238 -235 -240 -4 -2
-88 -86 -187 -188 -802 -828 -791 -816 -826 -885 -45 -86 -58 -144 -58 -256 0
-128 21 -206 78 -295 42 -65 119 -139 185 -177 127 -74 308 -92 448 -43 105
37 161 79 300 226 182 194 900 938 908 942 3 2 76 75 161 163 85 88 220 228
300 310 80 83 217 227 304 320 88 94 214 226 280 295 67 69 245 253 396 410
151 157 349 361 440 455 497 511 462 474 511 548 104 159 114 345 29 524 -72
149 -213 257 -376 288 -82 16 -114 17 -186 5z"/>
</g>
</svg>
